<svg width="48" height="45" viewBox="0 0 48 45" fill="none" xmlns="http://www.w3.org/2000/svg">
<g filter="url(#filter0_d)">
<rect width="40" height="37" transform="translate(4)" fill="white"/>
<path d="M36.2623 28.2375C38.7813 25.5269 40.1685 22.0689 40.1685 18.5004C40.1685 10.2529 32.9146 3.54297 23.9983 3.54297C15.0821 3.54297 7.82812 10.2529 7.82812 18.5004C7.82812 26.7479 15.0821 33.4579 23.9983 33.4579C27.8561 33.4579 31.5945 32.1747 34.5249 29.8446C34.789 29.6347 35.1852 29.6599 35.4164 29.899C35.7292 29.6306 36.0311 29.3515 36.3212 29.0621C36.0627 28.8483 36.0353 28.4818 36.2623 28.2375ZM23.36 5.31425C23.36 4.98817 23.6458 4.72382 23.9983 4.72382C24.3508 4.72382 24.6366 4.98817 24.6366 5.31425V7.67595C24.6366 8.00202 24.3508 8.26637 23.9983 8.26637C23.6458 8.26637 23.36 8.00202 23.36 7.67595V5.31425ZM12.2962 19.0908H9.74302C9.39051 19.0908 9.10472 18.8265 9.10472 18.5004C9.10472 18.1743 9.39051 17.91 9.74302 17.91H12.2962C12.6487 17.91 12.9345 18.1743 12.9345 18.5004C12.9345 18.8265 12.6487 19.0908 12.2962 19.0908ZM24.6366 31.6866C24.6366 32.0127 24.3508 32.277 23.9983 32.277C23.6458 32.277 23.36 32.0127 23.36 31.6866V29.3249C23.36 28.9988 23.6458 28.7345 23.9983 28.7345C24.3508 28.7345 24.6366 28.9988 24.6366 29.3249V31.6866ZM34.5297 11.2638L26.3034 18.8732C26.1116 19.8899 25.1514 20.6653 23.9983 20.6653C23.5845 20.6653 23.1958 20.5651 22.8582 20.3901L16.1789 26.5684C16.0543 26.6836 15.8909 26.7413 15.7276 26.7413C15.5643 26.7413 15.4009 26.6837 15.2763 26.5684C15.027 26.3378 15.027 25.9639 15.2763 25.7334L21.9555 19.5551C21.8292 19.3466 21.7394 19.117 21.6934 18.8733L16.175 13.7688C15.9257 13.5382 15.9257 13.1644 16.175 12.9339L17.9804 11.2639C18.2297 11.0333 18.6338 11.0333 18.883 11.2639L24.4014 16.3684C24.4285 16.3728 24.4554 16.3772 24.4822 16.3824L25.352 15.578C25.1029 15.3474 25.1029 14.9737 25.3522 14.7432L31.8217 8.75894C31.9413 8.64826 32.1037 8.58599 32.273 8.58599C32.4423 8.58599 32.6046 8.64818 32.7243 8.75894L34.5297 10.4289C34.779 10.6594 34.779 11.0333 34.5297 11.2638ZM35.7005 19.0908C35.348 19.0908 35.0622 18.8265 35.0622 18.5004C35.0622 18.1743 35.348 17.91 35.7005 17.91H38.2537C38.6062 17.91 38.892 18.1743 38.892 18.5004C38.892 18.8265 38.6062 19.0908 38.2537 19.0908H35.7005Z" fill="#C7C7C7"/>
<path d="M36.2623 28.2375C38.7813 25.5269 40.1685 22.0689 40.1685 18.5004C40.1685 10.2529 32.9146 3.54297 23.9983 3.54297C15.0821 3.54297 7.82812 10.2529 7.82812 18.5004C7.82812 26.7479 15.0821 33.4579 23.9983 33.4579C27.8561 33.4579 31.5945 32.1747 34.5249 29.8446C34.789 29.6347 35.1852 29.6599 35.4164 29.899C35.7292 29.6306 36.0311 29.3515 36.3212 29.0621C36.0627 28.8483 36.0353 28.4818 36.2623 28.2375ZM23.36 5.31425C23.36 4.98817 23.6458 4.72382 23.9983 4.72382C24.3508 4.72382 24.6366 4.98817 24.6366 5.31425V7.67595C24.6366 8.00202 24.3508 8.26637 23.9983 8.26637C23.6458 8.26637 23.36 8.00202 23.36 7.67595V5.31425ZM12.2962 19.0908H9.74302C9.39051 19.0908 9.10472 18.8265 9.10472 18.5004C9.10472 18.1743 9.39051 17.91 9.74302 17.91H12.2962C12.6487 17.91 12.9345 18.1743 12.9345 18.5004C12.9345 18.8265 12.6487 19.0908 12.2962 19.0908ZM24.6366 31.6866C24.6366 32.0127 24.3508 32.277 23.9983 32.277C23.6458 32.277 23.36 32.0127 23.36 31.6866V29.3249C23.36 28.9988 23.6458 28.7345 23.9983 28.7345C24.3508 28.7345 24.6366 28.9988 24.6366 29.3249V31.6866ZM34.5297 11.2638L26.3034 18.8732C26.1116 19.8899 25.1514 20.6653 23.9983 20.6653C23.5845 20.6653 23.1958 20.5651 22.8582 20.3901L16.1789 26.5684C16.0543 26.6836 15.8909 26.7413 15.7276 26.7413C15.5643 26.7413 15.4009 26.6837 15.2763 26.5684C15.027 26.3378 15.027 25.9639 15.2763 25.7334L21.9555 19.5551C21.8292 19.3466 21.7394 19.117 21.6934 18.8733L16.175 13.7688C15.9257 13.5382 15.9257 13.1644 16.175 12.9339L17.9804 11.2639C18.2297 11.0333 18.6338 11.0333 18.883 11.2639L24.4014 16.3684C24.4285 16.3728 24.4554 16.3772 24.4822 16.3824L25.352 15.578C25.1029 15.3474 25.1029 14.9737 25.3522 14.7432L31.8217 8.75894C31.9413 8.64826 32.1037 8.58599 32.273 8.58599C32.4423 8.58599 32.6046 8.64818 32.7243 8.75894L34.5297 10.4289C34.779 10.6594 34.779 11.0333 34.5297 11.2638ZM35.7005 19.0908C35.348 19.0908 35.0622 18.8265 35.0622 18.5004C35.0622 18.1743 35.348 17.91 35.7005 17.91H38.2537C38.6062 17.91 38.892 18.1743 38.892 18.5004C38.892 18.8265 38.6062 19.0908 38.2537 19.0908H35.7005Z" fill="url(#paint0_linear)"/>
<path d="M36.2623 28.2375C38.7813 25.5269 40.1685 22.0689 40.1685 18.5004C40.1685 10.2529 32.9146 3.54297 23.9983 3.54297C15.0821 3.54297 7.82812 10.2529 7.82812 18.5004C7.82812 26.7479 15.0821 33.4579 23.9983 33.4579C27.8561 33.4579 31.5945 32.1747 34.5249 29.8446C34.789 29.6347 35.1852 29.6599 35.4164 29.899C35.7292 29.6306 36.0311 29.3515 36.3212 29.0621C36.0627 28.8483 36.0353 28.4818 36.2623 28.2375ZM23.36 5.31425C23.36 4.98817 23.6458 4.72382 23.9983 4.72382C24.3508 4.72382 24.6366 4.98817 24.6366 5.31425V7.67595C24.6366 8.00202 24.3508 8.26637 23.9983 8.26637C23.6458 8.26637 23.36 8.00202 23.36 7.67595V5.31425ZM12.2962 19.0908H9.74302C9.39051 19.0908 9.10472 18.8265 9.10472 18.5004C9.10472 18.1743 9.39051 17.91 9.74302 17.91H12.2962C12.6487 17.91 12.9345 18.1743 12.9345 18.5004C12.9345 18.8265 12.6487 19.0908 12.2962 19.0908ZM24.6366 31.6866C24.6366 32.0127 24.3508 32.277 23.9983 32.277C23.6458 32.277 23.36 32.0127 23.36 31.6866V29.3249C23.36 28.9988 23.6458 28.7345 23.9983 28.7345C24.3508 28.7345 24.6366 28.9988 24.6366 29.3249V31.6866ZM34.5297 11.2638L26.3034 18.8732C26.1116 19.8899 25.1514 20.6653 23.9983 20.6653C23.5845 20.6653 23.1958 20.5651 22.8582 20.3901L16.1789 26.5684C16.0543 26.6836 15.8909 26.7413 15.7276 26.7413C15.5643 26.7413 15.4009 26.6837 15.2763 26.5684C15.027 26.3378 15.027 25.9639 15.2763 25.7334L21.9555 19.5551C21.8292 19.3466 21.7394 19.117 21.6934 18.8733L16.175 13.7688C15.9257 13.5382 15.9257 13.1644 16.175 12.9339L17.9804 11.2639C18.2297 11.0333 18.6338 11.0333 18.883 11.2639L24.4014 16.3684C24.4285 16.3728 24.4554 16.3772 24.4822 16.3824L25.352 15.578C25.1029 15.3474 25.1029 14.9737 25.3522 14.7432L31.8217 8.75894C31.9413 8.64826 32.1037 8.58599 32.273 8.58599C32.4423 8.58599 32.6046 8.64818 32.7243 8.75894L34.5297 10.4289C34.779 10.6594 34.779 11.0333 34.5297 11.2638ZM35.7005 19.0908C35.348 19.0908 35.0622 18.8265 35.0622 18.5004C35.0622 18.1743 35.348 17.91 35.7005 17.91H38.2537C38.6062 17.91 38.892 18.1743 38.892 18.5004C38.892 18.8265 38.6062 19.0908 38.2537 19.0908H35.7005Z" fill="url(#paint1_linear)"/>
<path d="M21.9567 17.445C22.1683 17.0956 22.4816 16.8058 22.8594 16.61L18.433 12.5156L17.5303 13.3506L21.9567 17.445Z" fill="#C7C7C7"/>
<path d="M21.9567 17.445C22.1683 17.0956 22.4816 16.8058 22.8594 16.61L18.433 12.5156L17.5303 13.3506L21.9567 17.445Z" fill="url(#paint2_linear)"/>
<path d="M21.9567 17.445C22.1683 17.0956 22.4816 16.8058 22.8594 16.61L18.433 12.5156L17.5303 13.3506L21.9567 17.445Z" fill="url(#paint3_linear)"/>
<path d="M26.0423 17.4461L33.1768 10.8467L32.274 10.0117L26.256 15.5785C26.0067 15.8091 25.6025 15.8091 25.3534 15.5785C25.3531 15.5783 24.4834 16.3827 24.4834 16.3827C25.1528 16.5134 25.7173 16.9096 26.0423 17.4461Z" fill="#C7C7C7"/>
<path d="M26.0423 17.4461L33.1768 10.8467L32.274 10.0117L26.256 15.5785C26.0067 15.8091 25.6025 15.8091 25.3534 15.5785C25.3531 15.5783 24.4834 16.3827 24.4834 16.3827C25.1528 16.5134 25.7173 16.9096 26.0423 17.4461Z" fill="url(#paint4_linear)"/>
<path d="M26.0423 17.4461L33.1768 10.8467L32.274 10.0117L26.256 15.5785C26.0067 15.8091 25.6025 15.8091 25.3534 15.5785C25.3531 15.5783 24.4834 16.3827 24.4834 16.3827C25.1528 16.5134 25.7173 16.9096 26.0423 17.4461Z" fill="url(#paint5_linear)"/>
<path d="M24.0027 1.17969C13.6785 1.17969 5.2793 8.94906 5.2793 18.4988C5.2793 28.0487 13.6785 35.818 24.0027 35.818C34.3269 35.818 42.7261 28.0487 42.7261 18.4988C42.7261 8.94906 34.3269 1.17969 24.0027 1.17969ZM37.2348 29.0057C37.005 29.2529 36.6021 29.2811 36.3346 29.0685C36.3314 29.066 36.3287 29.063 36.3255 29.0604C36.0354 29.3498 35.7336 29.6291 35.4207 29.8974C35.4235 29.9003 35.4265 29.9028 35.4293 29.9058C35.6591 30.153 35.6287 30.5258 35.3614 30.7384C32.1995 33.2526 28.1657 34.6371 24.0027 34.6371C14.3824 34.6371 6.55589 27.3976 6.55589 18.4988C6.55589 9.60018 14.3824 2.36054 24.0027 2.36054C33.623 2.36054 41.4495 9.60018 41.4495 18.4988C41.4495 22.3496 39.9527 26.0809 37.2348 29.0057Z" fill="#C7C7C7"/>
<path d="M24.0027 1.17969C13.6785 1.17969 5.2793 8.94906 5.2793 18.4988C5.2793 28.0487 13.6785 35.818 24.0027 35.818C34.3269 35.818 42.7261 28.0487 42.7261 18.4988C42.7261 8.94906 34.3269 1.17969 24.0027 1.17969ZM37.2348 29.0057C37.005 29.2529 36.6021 29.2811 36.3346 29.0685C36.3314 29.066 36.3287 29.063 36.3255 29.0604C36.0354 29.3498 35.7336 29.6291 35.4207 29.8974C35.4235 29.9003 35.4265 29.9028 35.4293 29.9058C35.6591 30.153 35.6287 30.5258 35.3614 30.7384C32.1995 33.2526 28.1657 34.6371 24.0027 34.6371C14.3824 34.6371 6.55589 27.3976 6.55589 18.4988C6.55589 9.60018 14.3824 2.36054 24.0027 2.36054C33.623 2.36054 41.4495 9.60018 41.4495 18.4988C41.4495 22.3496 39.9527 26.0809 37.2348 29.0057Z" fill="url(#paint6_linear)"/>
<path d="M24.0027 1.17969C13.6785 1.17969 5.2793 8.94906 5.2793 18.4988C5.2793 28.0487 13.6785 35.818 24.0027 35.818C34.3269 35.818 42.7261 28.0487 42.7261 18.4988C42.7261 8.94906 34.3269 1.17969 24.0027 1.17969ZM37.2348 29.0057C37.005 29.2529 36.6021 29.2811 36.3346 29.0685C36.3314 29.066 36.3287 29.063 36.3255 29.0604C36.0354 29.3498 35.7336 29.6291 35.4207 29.8974C35.4235 29.9003 35.4265 29.9028 35.4293 29.9058C35.6591 30.153 35.6287 30.5258 35.3614 30.7384C32.1995 33.2526 28.1657 34.6371 24.0027 34.6371C14.3824 34.6371 6.55589 27.3976 6.55589 18.4988C6.55589 9.60018 14.3824 2.36054 24.0027 2.36054C33.623 2.36054 41.4495 9.60018 41.4495 18.4988C41.4495 22.3496 39.9527 26.0809 37.2348 29.0057Z" fill="url(#paint7_linear)"/>
<path d="M38.1421 5.41853C34.3647 1.92431 29.3422 0 24 0C18.6578 0 13.6353 1.92431 9.85787 5.41853C6.08034 8.91275 4 13.5585 4 18.5C4 23.4415 6.08034 28.0873 9.85787 31.5815C13.6353 35.0757 18.6578 37 24 37C29.3422 37 34.3647 35.0757 38.1421 31.5815C41.9197 28.0873 44 23.4415 44 18.5C44 13.5585 41.9197 8.91275 38.1421 5.41853ZM24 35.8191C13.6758 35.8191 5.2766 28.0499 5.2766 18.5C5.2766 8.95022 13.6758 1.18085 24 1.18085C34.3242 1.18085 42.7234 8.95022 42.7234 18.5C42.7234 28.0499 34.3242 35.8191 24 35.8191Z" fill="#C7C7C7"/>
<path d="M38.1421 5.41853C34.3647 1.92431 29.3422 0 24 0C18.6578 0 13.6353 1.92431 9.85787 5.41853C6.08034 8.91275 4 13.5585 4 18.5C4 23.4415 6.08034 28.0873 9.85787 31.5815C13.6353 35.0757 18.6578 37 24 37C29.3422 37 34.3647 35.0757 38.1421 31.5815C41.9197 28.0873 44 23.4415 44 18.5C44 13.5585 41.9197 8.91275 38.1421 5.41853ZM24 35.8191C13.6758 35.8191 5.2766 28.0499 5.2766 18.5C5.2766 8.95022 13.6758 1.18085 24 1.18085C34.3242 1.18085 42.7234 8.95022 42.7234 18.5C42.7234 28.0499 34.3242 35.8191 24 35.8191Z" fill="url(#paint8_linear)"/>
<path d="M38.1421 5.41853C34.3647 1.92431 29.3422 0 24 0C18.6578 0 13.6353 1.92431 9.85787 5.41853C6.08034 8.91275 4 13.5585 4 18.5C4 23.4415 6.08034 28.0873 9.85787 31.5815C13.6353 35.0757 18.6578 37 24 37C29.3422 37 34.3647 35.0757 38.1421 31.5815C41.9197 28.0873 44 23.4415 44 18.5C44 13.5585 41.9197 8.91275 38.1421 5.41853ZM24 35.8191C13.6758 35.8191 5.2766 28.0499 5.2766 18.5C5.2766 8.95022 13.6758 1.18085 24 1.18085C34.3242 1.18085 42.7234 8.95022 42.7234 18.5C42.7234 28.0499 34.3242 35.8191 24 35.8191Z" fill="url(#paint9_linear)"/>
<path d="M25.0632 18.4997C25.0632 17.957 24.586 17.5156 23.9994 17.5156C23.4127 17.5156 22.9355 17.957 22.9355 18.4997C22.9355 19.0423 23.4127 19.4837 23.9994 19.4837C24.586 19.4837 25.0632 19.0423 25.0632 18.4997Z" fill="#C7C7C7"/>
<path d="M25.0632 18.4997C25.0632 17.957 24.586 17.5156 23.9994 17.5156C23.4127 17.5156 22.9355 17.957 22.9355 18.4997C22.9355 19.0423 23.4127 19.4837 23.9994 19.4837C24.586 19.4837 25.0632 19.0423 25.0632 18.4997Z" fill="url(#paint10_linear)"/>
<path d="M25.0632 18.4997C25.0632 17.957 24.586 17.5156 23.9994 17.5156C23.4127 17.5156 22.9355 17.957 22.9355 18.4997C22.9355 19.0423 23.4127 19.4837 23.9994 19.4837C24.586 19.4837 25.0632 19.0423 25.0632 18.4997Z" fill="url(#paint11_linear)"/>
<path d="M38.8942 18.5006C38.8942 18.1745 38.6085 17.9102 38.2559 17.9102H35.7028C35.3502 17.9102 35.0645 18.1745 35.0645 18.5006C35.0645 18.8267 35.3502 19.091 35.7028 19.091H38.2559C38.6085 19.091 38.8942 18.8267 38.8942 18.5006Z" fill="#C7C7C7"/>
<path d="M38.8942 18.5006C38.8942 18.1745 38.6085 17.9102 38.2559 17.9102H35.7028C35.3502 17.9102 35.0645 18.1745 35.0645 18.5006C35.0645 18.8267 35.3502 19.091 35.7028 19.091H38.2559C38.6085 19.091 38.8942 18.8267 38.8942 18.5006Z" fill="url(#paint12_linear)"/>
<path d="M38.8942 18.5006C38.8942 18.1745 38.6085 17.9102 38.2559 17.9102H35.7028C35.3502 17.9102 35.0645 18.1745 35.0645 18.5006C35.0645 18.8267 35.3502 19.091 35.7028 19.091H38.2559C38.6085 19.091 38.8942 18.8267 38.8942 18.5006Z" fill="url(#paint13_linear)"/>
<path d="M24.0035 28.7344C23.651 28.7344 23.3652 28.9987 23.3652 29.3248V31.6865C23.3652 32.0126 23.651 32.2769 24.0035 32.2769C24.356 32.2769 24.6418 32.0126 24.6418 31.6865V29.3248C24.6418 28.9987 24.356 28.7344 24.0035 28.7344Z" fill="#C7C7C7"/>
<path d="M24.0035 28.7344C23.651 28.7344 23.3652 28.9987 23.3652 29.3248V31.6865C23.3652 32.0126 23.651 32.2769 24.0035 32.2769C24.356 32.2769 24.6418 32.0126 24.6418 31.6865V29.3248C24.6418 28.9987 24.356 28.7344 24.0035 28.7344Z" fill="url(#paint14_linear)"/>
<path d="M24.0035 28.7344C23.651 28.7344 23.3652 28.9987 23.3652 29.3248V31.6865C23.3652 32.0126 23.651 32.2769 24.0035 32.2769C24.356 32.2769 24.6418 32.0126 24.6418 31.6865V29.3248C24.6418 28.9987 24.356 28.7344 24.0035 28.7344Z" fill="url(#paint15_linear)"/>
<path d="M12.2989 17.9102H9.74572C9.39321 17.9102 9.10742 18.1745 9.10742 18.5006C9.10742 18.8267 9.39321 19.091 9.74572 19.091H12.2989C12.6514 19.091 12.9372 18.8267 12.9372 18.5006C12.9372 18.1745 12.6514 17.9102 12.2989 17.9102Z" fill="#C7C7C7"/>
<path d="M12.2989 17.9102H9.74572C9.39321 17.9102 9.10742 18.1745 9.10742 18.5006C9.10742 18.8267 9.39321 19.091 9.74572 19.091H12.2989C12.6514 19.091 12.9372 18.8267 12.9372 18.5006C12.9372 18.1745 12.6514 17.9102 12.2989 17.9102Z" fill="url(#paint16_linear)"/>
<path d="M12.2989 17.9102H9.74572C9.39321 17.9102 9.10742 18.1745 9.10742 18.5006C9.10742 18.8267 9.39321 19.091 9.74572 19.091H12.2989C12.6514 19.091 12.9372 18.8267 12.9372 18.5006C12.9372 18.1745 12.6514 17.9102 12.2989 17.9102Z" fill="url(#paint17_linear)"/>
<path d="M32.7287 8.75889C32.6091 8.64821 32.4467 8.58594 32.2774 8.58594C32.1081 8.58594 31.9457 8.64813 31.8261 8.75889L25.3566 14.7431C25.1074 14.9736 25.1073 15.3473 25.3564 15.5779C25.6058 15.8087 26.01 15.8087 26.2593 15.5782L32.2773 10.0114L33.18 10.8464L26.0456 17.4458C25.7205 16.9093 25.156 16.5131 24.4866 16.3823C24.4599 16.3771 24.4328 16.3727 24.4058 16.3683L18.8874 11.2638C18.6382 11.0332 18.234 11.0332 17.9848 11.2638L16.1794 12.9338C15.9302 13.1643 15.9302 13.5382 16.1794 13.7687L21.6978 18.8732C21.7438 19.1168 21.8336 19.3465 21.9599 19.555L15.2807 25.7333C15.0314 25.9639 15.0314 26.3378 15.2807 26.5683C15.4053 26.6835 15.5687 26.7412 15.732 26.7412C15.8953 26.7412 16.0587 26.6836 16.1833 26.5683L22.8626 20.39C23.2002 20.565 23.589 20.6652 24.0028 20.6652C25.1558 20.6652 26.116 19.8898 26.3077 18.8732L34.5341 11.2638C34.7834 11.0332 34.7834 10.6594 34.5341 10.4289L32.7287 8.75889ZM22.8626 16.6108C22.4848 16.8066 22.1715 17.0963 21.9599 17.4458L17.5335 13.3514L18.4362 12.5164L22.8626 16.6108ZM22.9389 18.5004C22.9389 17.9578 23.4161 17.5164 24.0028 17.5164C24.5894 17.5164 25.0666 17.9578 25.0666 18.5004C25.0666 19.0431 24.5894 19.4845 24.0028 19.4845C23.4161 19.4845 22.9389 19.0431 22.9389 18.5004Z" fill="#C7C7C7"/>
<path d="M32.7287 8.75889C32.6091 8.64821 32.4467 8.58594 32.2774 8.58594C32.1081 8.58594 31.9457 8.64813 31.8261 8.75889L25.3566 14.7431C25.1074 14.9736 25.1073 15.3473 25.3564 15.5779C25.6058 15.8087 26.01 15.8087 26.2593 15.5782L32.2773 10.0114L33.18 10.8464L26.0456 17.4458C25.7205 16.9093 25.156 16.5131 24.4866 16.3823C24.4599 16.3771 24.4328 16.3727 24.4058 16.3683L18.8874 11.2638C18.6382 11.0332 18.234 11.0332 17.9848 11.2638L16.1794 12.9338C15.9302 13.1643 15.9302 13.5382 16.1794 13.7687L21.6978 18.8732C21.7438 19.1168 21.8336 19.3465 21.9599 19.555L15.2807 25.7333C15.0314 25.9639 15.0314 26.3378 15.2807 26.5683C15.4053 26.6835 15.5687 26.7412 15.732 26.7412C15.8953 26.7412 16.0587 26.6836 16.1833 26.5683L22.8626 20.39C23.2002 20.565 23.589 20.6652 24.0028 20.6652C25.1558 20.6652 26.116 19.8898 26.3077 18.8732L34.5341 11.2638C34.7834 11.0332 34.7834 10.6594 34.5341 10.4289L32.7287 8.75889ZM22.8626 16.6108C22.4848 16.8066 22.1715 17.0963 21.9599 17.4458L17.5335 13.3514L18.4362 12.5164L22.8626 16.6108ZM22.9389 18.5004C22.9389 17.9578 23.4161 17.5164 24.0028 17.5164C24.5894 17.5164 25.0666 17.9578 25.0666 18.5004C25.0666 19.0431 24.5894 19.4845 24.0028 19.4845C23.4161 19.4845 22.9389 19.0431 22.9389 18.5004Z" fill="url(#paint18_linear)"/>
<path d="M32.7287 8.75889C32.6091 8.64821 32.4467 8.58594 32.2774 8.58594C32.1081 8.58594 31.9457 8.64813 31.8261 8.75889L25.3566 14.7431C25.1074 14.9736 25.1073 15.3473 25.3564 15.5779C25.6058 15.8087 26.01 15.8087 26.2593 15.5782L32.2773 10.0114L33.18 10.8464L26.0456 17.4458C25.7205 16.9093 25.156 16.5131 24.4866 16.3823C24.4599 16.3771 24.4328 16.3727 24.4058 16.3683L18.8874 11.2638C18.6382 11.0332 18.234 11.0332 17.9848 11.2638L16.1794 12.9338C15.9302 13.1643 15.9302 13.5382 16.1794 13.7687L21.6978 18.8732C21.7438 19.1168 21.8336 19.3465 21.9599 19.555L15.2807 25.7333C15.0314 25.9639 15.0314 26.3378 15.2807 26.5683C15.4053 26.6835 15.5687 26.7412 15.732 26.7412C15.8953 26.7412 16.0587 26.6836 16.1833 26.5683L22.8626 20.39C23.2002 20.565 23.589 20.6652 24.0028 20.6652C25.1558 20.6652 26.116 19.8898 26.3077 18.8732L34.5341 11.2638C34.7834 11.0332 34.7834 10.6594 34.5341 10.4289L32.7287 8.75889ZM22.8626 16.6108C22.4848 16.8066 22.1715 17.0963 21.9599 17.4458L17.5335 13.3514L18.4362 12.5164L22.8626 16.6108ZM22.9389 18.5004C22.9389 17.9578 23.4161 17.5164 24.0028 17.5164C24.5894 17.5164 25.0666 17.9578 25.0666 18.5004C25.0666 19.0431 24.5894 19.4845 24.0028 19.4845C23.4161 19.4845 22.9389 19.0431 22.9389 18.5004Z" fill="url(#paint19_linear)"/>
<path d="M24.0005 2.36328C14.3803 2.36328 6.55371 9.60292 6.55371 18.5016C6.55371 27.4003 14.3803 34.6399 24.0005 34.6399C28.1635 34.6399 32.1974 33.2554 35.3592 30.7413C35.6266 30.5287 35.657 30.1559 35.4272 29.9086C35.4244 29.9056 35.4213 29.9031 35.4185 29.9002C35.1873 29.6611 34.7912 29.6358 34.527 29.8458C31.5967 32.1758 27.8583 33.459 24.0005 33.459C15.0843 33.459 7.83031 26.7491 7.83031 18.5016C7.83031 10.254 15.0843 3.54413 24.0005 3.54413C32.9168 3.54413 40.1707 10.254 40.1707 18.5016C40.1707 22.07 38.7835 25.528 36.2645 28.2386C36.0375 28.4829 36.0649 28.8495 36.3233 29.0633C36.3265 29.0659 36.3292 29.0687 36.3324 29.0713C36.5999 29.2838 37.0028 29.2557 37.2326 29.0085C39.9506 26.0837 41.4473 22.3523 41.4473 18.5016C41.4473 9.60292 33.6208 2.36328 24.0005 2.36328Z" fill="#C7C7C7"/>
<path d="M24.0005 2.36328C14.3803 2.36328 6.55371 9.60292 6.55371 18.5016C6.55371 27.4003 14.3803 34.6399 24.0005 34.6399C28.1635 34.6399 32.1974 33.2554 35.3592 30.7413C35.6266 30.5287 35.657 30.1559 35.4272 29.9086C35.4244 29.9056 35.4213 29.9031 35.4185 29.9002C35.1873 29.6611 34.7912 29.6358 34.527 29.8458C31.5967 32.1758 27.8583 33.459 24.0005 33.459C15.0843 33.459 7.83031 26.7491 7.83031 18.5016C7.83031 10.254 15.0843 3.54413 24.0005 3.54413C32.9168 3.54413 40.1707 10.254 40.1707 18.5016C40.1707 22.07 38.7835 25.528 36.2645 28.2386C36.0375 28.4829 36.0649 28.8495 36.3233 29.0633C36.3265 29.0659 36.3292 29.0687 36.3324 29.0713C36.5999 29.2838 37.0028 29.2557 37.2326 29.0085C39.9506 26.0837 41.4473 22.3523 41.4473 18.5016C41.4473 9.60292 33.6208 2.36328 24.0005 2.36328Z" fill="url(#paint20_linear)"/>
<path d="M24.0005 2.36328C14.3803 2.36328 6.55371 9.60292 6.55371 18.5016C6.55371 27.4003 14.3803 34.6399 24.0005 34.6399C28.1635 34.6399 32.1974 33.2554 35.3592 30.7413C35.6266 30.5287 35.657 30.1559 35.4272 29.9086C35.4244 29.9056 35.4213 29.9031 35.4185 29.9002C35.1873 29.6611 34.7912 29.6358 34.527 29.8458C31.5967 32.1758 27.8583 33.459 24.0005 33.459C15.0843 33.459 7.83031 26.7491 7.83031 18.5016C7.83031 10.254 15.0843 3.54413 24.0005 3.54413C32.9168 3.54413 40.1707 10.254 40.1707 18.5016C40.1707 22.07 38.7835 25.528 36.2645 28.2386C36.0375 28.4829 36.0649 28.8495 36.3233 29.0633C36.3265 29.0659 36.3292 29.0687 36.3324 29.0713C36.5999 29.2838 37.0028 29.2557 37.2326 29.0085C39.9506 26.0837 41.4473 22.3523 41.4473 18.5016C41.4473 9.60292 33.6208 2.36328 24.0005 2.36328Z" fill="url(#paint21_linear)"/>
</g>
<defs>
<filter id="filter0_d" x="0" y="0" width="48" height="45" filterUnits="userSpaceOnUse" color-interpolation-filters="sRGB">
<feFlood flood-opacity="0" result="BackgroundImageFix"/>
<feColorMatrix in="SourceAlpha" type="matrix" values="0 0 0 0 0 0 0 0 0 0 0 0 0 0 0 0 0 0 127 0"/>
<feOffset dy="4"/>
<feGaussianBlur stdDeviation="2"/>
<feColorMatrix type="matrix" values="0 0 0 0 0 0 0 0 0 0 0 0 0 0 0 0 0 0 0.25 0"/>
<feBlend mode="normal" in2="BackgroundImageFix" result="effect1_dropShadow"/>
<feBlend mode="normal" in="SourceGraphic" in2="effect1_dropShadow" result="shape"/>
</filter>
<linearGradient id="paint0_linear" x1="23.9983" y1="3.54297" x2="23.9983" y2="33.4579" gradientUnits="userSpaceOnUse">
<stop stop-color="white"/>
<stop offset="1" stop-color="white" stop-opacity="0"/>
</linearGradient>
<linearGradient id="paint1_linear" x1="23.9983" y1="3.54297" x2="23.9983" y2="33.4579" gradientUnits="userSpaceOnUse">
<stop stop-color="white"/>
<stop offset="1" stop-color="white" stop-opacity="0"/>
</linearGradient>
<linearGradient id="paint2_linear" x1="20.1948" y1="12.5156" x2="20.1948" y2="17.445" gradientUnits="userSpaceOnUse">
<stop stop-color="white"/>
<stop offset="1" stop-color="white" stop-opacity="0"/>
</linearGradient>
<linearGradient id="paint3_linear" x1="20.1948" y1="12.5156" x2="20.1948" y2="17.445" gradientUnits="userSpaceOnUse">
<stop stop-color="white"/>
<stop offset="1" stop-color="white" stop-opacity="0"/>
</linearGradient>
<linearGradient id="paint4_linear" x1="28.8301" y1="10.0117" x2="28.8301" y2="17.4461" gradientUnits="userSpaceOnUse">
<stop stop-color="white"/>
<stop offset="1" stop-color="white" stop-opacity="0"/>
</linearGradient>
<linearGradient id="paint5_linear" x1="28.8301" y1="10.0117" x2="28.8301" y2="17.4461" gradientUnits="userSpaceOnUse">
<stop stop-color="white"/>
<stop offset="1" stop-color="white" stop-opacity="0"/>
</linearGradient>
<linearGradient id="paint6_linear" x1="24.0027" y1="1.17969" x2="24.0027" y2="35.818" gradientUnits="userSpaceOnUse">
<stop stop-color="white"/>
<stop offset="1" stop-color="white" stop-opacity="0"/>
</linearGradient>
<linearGradient id="paint7_linear" x1="24.0027" y1="1.17969" x2="24.0027" y2="35.818" gradientUnits="userSpaceOnUse">
<stop stop-color="white"/>
<stop offset="1" stop-color="white" stop-opacity="0"/>
</linearGradient>
<linearGradient id="paint8_linear" x1="24" y1="0" x2="24" y2="37" gradientUnits="userSpaceOnUse">
<stop stop-color="white"/>
<stop offset="1" stop-color="white" stop-opacity="0"/>
</linearGradient>
<linearGradient id="paint9_linear" x1="24" y1="0" x2="24" y2="37" gradientUnits="userSpaceOnUse">
<stop stop-color="white"/>
<stop offset="1" stop-color="white" stop-opacity="0"/>
</linearGradient>
<linearGradient id="paint10_linear" x1="23.9994" y1="17.5156" x2="23.9994" y2="19.4837" gradientUnits="userSpaceOnUse">
<stop stop-color="white"/>
<stop offset="1" stop-color="white" stop-opacity="0"/>
</linearGradient>
<linearGradient id="paint11_linear" x1="23.9994" y1="17.5156" x2="23.9994" y2="19.4837" gradientUnits="userSpaceOnUse">
<stop stop-color="white"/>
<stop offset="1" stop-color="white" stop-opacity="0"/>
</linearGradient>
<linearGradient id="paint12_linear" x1="36.9794" y1="17.9102" x2="36.9794" y2="19.091" gradientUnits="userSpaceOnUse">
<stop stop-color="white"/>
<stop offset="1" stop-color="white" stop-opacity="0"/>
</linearGradient>
<linearGradient id="paint13_linear" x1="36.9794" y1="17.9102" x2="36.9794" y2="19.091" gradientUnits="userSpaceOnUse">
<stop stop-color="white"/>
<stop offset="1" stop-color="white" stop-opacity="0"/>
</linearGradient>
<linearGradient id="paint14_linear" x1="24.0035" y1="28.7344" x2="24.0035" y2="32.2769" gradientUnits="userSpaceOnUse">
<stop stop-color="white"/>
<stop offset="1" stop-color="white" stop-opacity="0"/>
</linearGradient>
<linearGradient id="paint15_linear" x1="24.0035" y1="28.7344" x2="24.0035" y2="32.2769" gradientUnits="userSpaceOnUse">
<stop stop-color="white"/>
<stop offset="1" stop-color="white" stop-opacity="0"/>
</linearGradient>
<linearGradient id="paint16_linear" x1="11.0223" y1="17.9102" x2="11.0223" y2="19.091" gradientUnits="userSpaceOnUse">
<stop stop-color="white"/>
<stop offset="1" stop-color="white" stop-opacity="0"/>
</linearGradient>
<linearGradient id="paint17_linear" x1="11.0223" y1="17.9102" x2="11.0223" y2="19.091" gradientUnits="userSpaceOnUse">
<stop stop-color="white"/>
<stop offset="1" stop-color="white" stop-opacity="0"/>
</linearGradient>
<linearGradient id="paint18_linear" x1="24.9074" y1="8.58594" x2="24.9074" y2="26.7412" gradientUnits="userSpaceOnUse">
<stop stop-color="white"/>
<stop offset="1" stop-color="white" stop-opacity="0"/>
</linearGradient>
<linearGradient id="paint19_linear" x1="24.9074" y1="8.58594" x2="24.9074" y2="26.7412" gradientUnits="userSpaceOnUse">
<stop stop-color="white"/>
<stop offset="1" stop-color="white" stop-opacity="0"/>
</linearGradient>
<linearGradient id="paint20_linear" x1="24.0005" y1="2.36328" x2="24.0005" y2="34.6399" gradientUnits="userSpaceOnUse">
<stop stop-color="white"/>
<stop offset="1" stop-color="white" stop-opacity="0"/>
</linearGradient>
<linearGradient id="paint21_linear" x1="24.0005" y1="2.36328" x2="24.0005" y2="34.6399" gradientUnits="userSpaceOnUse">
<stop stop-color="white"/>
<stop offset="1" stop-color="white" stop-opacity="0"/>
</linearGradient>
</defs>
</svg>
